<mxfile host="app.diagrams.net" agent="Mozilla/5.0 (Windows NT 10.0; Win64; x64; rv:139.0) Gecko/20100101 Firefox/139.0" version="26.2.14">
  <diagram name="ResNet-18" id="0">
    <mxGraphModel dx="1501" dy="799" grid="1" gridSize="10" guides="1" tooltips="1" connect="1" arrows="1" fold="1" page="1" pageScale="1" pageWidth="827" pageHeight="1169" math="0" shadow="0">
      <root>
        <mxCell id="0" />
        <mxCell id="1" parent="0" />
        <mxCell id="ZyxbYxt3RPyEUnQpAJbR-1" value="" style="shape=cube;whiteSpace=wrap;html=1;boundedLbl=1;backgroundOutline=1;darkOpacity=0.05;darkOpacity2=0.1;size=110;direction=east;flipH=1;fillColor=#ffe6cc;strokeColor=#d79b00;" vertex="1" parent="1">
          <mxGeometry x="361" y="485.31999999999994" width="120" height="420" as="geometry" />
        </mxCell>
        <mxCell id="ZyxbYxt3RPyEUnQpAJbR-2" value="" style="shape=cube;whiteSpace=wrap;html=1;boundedLbl=1;backgroundOutline=1;darkOpacity=0.05;darkOpacity2=0.1;size=110;direction=east;flipH=1;fillColor=#fff2cc;strokeColor=#d6b656;fillStyle=solid;" vertex="1" parent="1">
          <mxGeometry x="370" y="485.31999999999994" width="120" height="420" as="geometry" />
        </mxCell>
        <mxCell id="ZyxbYxt3RPyEUnQpAJbR-3" value="" style="shape=cube;whiteSpace=wrap;html=1;boundedLbl=1;backgroundOutline=1;darkOpacity=0.05;darkOpacity2=0.1;size=7;direction=east;flipH=1;fillColor=#ffe6cc;strokeColor=#d79b00;" vertex="1" parent="1">
          <mxGeometry x="808.5" y="778" width="36" height="7.88" as="geometry" />
        </mxCell>
        <mxCell id="ZyxbYxt3RPyEUnQpAJbR-4" value="" style="shape=cube;whiteSpace=wrap;html=1;boundedLbl=1;backgroundOutline=1;darkOpacity=0.05;darkOpacity2=0.1;size=7;direction=east;flipH=1;fillColor=#fff2cc;strokeColor=#d6b656;" vertex="1" parent="1">
          <mxGeometry x="808.5" y="798.8199999999999" width="36" height="7.88" as="geometry" />
        </mxCell>
        <mxCell id="ZyxbYxt3RPyEUnQpAJbR-5" value="&lt;b&gt;conv1&lt;/b&gt;" style="text;html=1;strokeColor=none;fillColor=none;align=center;verticalAlign=middle;whiteSpace=wrap;rounded=0;" vertex="1" parent="1">
          <mxGeometry x="441" y="450" width="40" height="30" as="geometry" />
        </mxCell>
        <mxCell id="ZyxbYxt3RPyEUnQpAJbR-6" value="&lt;b&gt;conv2&lt;/b&gt;" style="text;html=1;strokeColor=none;fillColor=none;align=center;verticalAlign=middle;whiteSpace=wrap;rounded=0;" vertex="1" parent="1">
          <mxGeometry x="580" y="540" width="40" height="30" as="geometry" />
        </mxCell>
        <mxCell id="ZyxbYxt3RPyEUnQpAJbR-7" value="&lt;div&gt;&lt;b&gt;fc1&lt;/b&gt;&lt;/div&gt;" style="text;html=1;strokeColor=none;fillColor=none;align=center;verticalAlign=middle;whiteSpace=wrap;rounded=0;" vertex="1" parent="1">
          <mxGeometry x="940" y="606" width="40" height="30" as="geometry" />
        </mxCell>
        <mxCell id="ZyxbYxt3RPyEUnQpAJbR-8" value="&lt;div&gt;224 x 224 x 32&lt;/div&gt;" style="text;html=1;strokeColor=none;fillColor=none;align=center;verticalAlign=middle;whiteSpace=wrap;rounded=0;" vertex="1" parent="1">
          <mxGeometry x="361" y="911.88" width="99" height="30" as="geometry" />
        </mxCell>
        <mxCell id="ZyxbYxt3RPyEUnQpAJbR-9" value="&lt;div&gt;112 x 112 x 64&lt;/div&gt;" style="text;html=1;strokeColor=none;fillColor=none;align=center;verticalAlign=middle;whiteSpace=wrap;rounded=0;" vertex="1" parent="1">
          <mxGeometry x="521" y="818.94" width="99" height="30" as="geometry" />
        </mxCell>
        <mxCell id="ZyxbYxt3RPyEUnQpAJbR-10" value="Convolutional" style="text;html=1;strokeColor=none;fillColor=none;align=left;verticalAlign=middle;whiteSpace=wrap;rounded=0;fontStyle=1" vertex="1" parent="1">
          <mxGeometry x="846" y="770" width="138" height="23.88" as="geometry" />
        </mxCell>
        <mxCell id="ZyxbYxt3RPyEUnQpAJbR-11" value="" style="shape=cube;whiteSpace=wrap;html=1;boundedLbl=1;backgroundOutline=1;darkOpacity=0.05;darkOpacity2=0.1;size=110;direction=east;flipH=1;shadow=0;fillStyle=cross-hatch;fillColor=#dae8fc;strokeColor=#6c8ebf;gradientColor=none;" vertex="1" parent="1">
          <mxGeometry x="210" y="485.31999999999994" width="110" height="420" as="geometry" />
        </mxCell>
        <mxCell id="ZyxbYxt3RPyEUnQpAJbR-12" value="224 x 224 x 3" style="text;html=1;strokeColor=none;fillColor=none;align=center;verticalAlign=middle;whiteSpace=wrap;rounded=0;" vertex="1" parent="1">
          <mxGeometry x="210" y="911.8800000000001" width="99" height="30" as="geometry" />
        </mxCell>
        <mxCell id="ZyxbYxt3RPyEUnQpAJbR-13" style="rounded=0;orthogonalLoop=1;jettySize=auto;html=1;exitX=1;exitY=0.5;exitDx=0;exitDy=0;entryX=0;entryY=0.5;entryDx=0;entryDy=0;endArrow=none;startFill=0;" edge="1" parent="1" source="ZyxbYxt3RPyEUnQpAJbR-101" target="ZyxbYxt3RPyEUnQpAJbR-21">
          <mxGeometry relative="1" as="geometry" />
        </mxCell>
        <mxCell id="ZyxbYxt3RPyEUnQpAJbR-14" style="rounded=0;orthogonalLoop=1;jettySize=auto;html=1;exitX=1;exitY=0.5;exitDx=0;exitDy=0;entryX=0;entryY=0.5;entryDx=0;entryDy=0;endArrow=none;startFill=0;" edge="1" parent="1" source="ZyxbYxt3RPyEUnQpAJbR-101" target="ZyxbYxt3RPyEUnQpAJbR-26">
          <mxGeometry relative="1" as="geometry" />
        </mxCell>
        <mxCell id="ZyxbYxt3RPyEUnQpAJbR-15" style="rounded=0;orthogonalLoop=1;jettySize=auto;html=1;exitX=1;exitY=0.5;exitDx=0;exitDy=0;entryX=0;entryY=0.5;entryDx=0;entryDy=0;endArrow=none;startFill=0;" edge="1" parent="1" source="ZyxbYxt3RPyEUnQpAJbR-101" target="ZyxbYxt3RPyEUnQpAJbR-31">
          <mxGeometry relative="1" as="geometry" />
        </mxCell>
        <mxCell id="ZyxbYxt3RPyEUnQpAJbR-16" style="rounded=0;orthogonalLoop=1;jettySize=auto;html=1;exitX=1;exitY=0.5;exitDx=0;exitDy=0;entryX=0;entryY=0.5;entryDx=0;entryDy=0;endArrow=none;startFill=0;" edge="1" parent="1" source="ZyxbYxt3RPyEUnQpAJbR-101" target="ZyxbYxt3RPyEUnQpAJbR-36">
          <mxGeometry relative="1" as="geometry" />
        </mxCell>
        <mxCell id="ZyxbYxt3RPyEUnQpAJbR-17" style="rounded=0;orthogonalLoop=1;jettySize=auto;html=1;exitX=1;exitY=0.5;exitDx=0;exitDy=0;entryX=0;entryY=0.5;entryDx=0;entryDy=0;endArrow=none;startFill=0;startArrow=none;" edge="1" parent="1" source="ZyxbYxt3RPyEUnQpAJbR-21" target="ZyxbYxt3RPyEUnQpAJbR-81">
          <mxGeometry relative="1" as="geometry" />
        </mxCell>
        <mxCell id="ZyxbYxt3RPyEUnQpAJbR-18" style="rounded=0;orthogonalLoop=1;jettySize=auto;html=1;exitX=1;exitY=0.5;exitDx=0;exitDy=0;entryX=0;entryY=0.5;entryDx=0;entryDy=0;endArrow=none;startFill=0;startArrow=none;" edge="1" parent="1" source="ZyxbYxt3RPyEUnQpAJbR-21" target="ZyxbYxt3RPyEUnQpAJbR-82">
          <mxGeometry relative="1" as="geometry" />
        </mxCell>
        <mxCell id="ZyxbYxt3RPyEUnQpAJbR-19" style="rounded=0;orthogonalLoop=1;jettySize=auto;html=1;exitX=1;exitY=0.5;exitDx=0;exitDy=0;entryX=0;entryY=0.5;entryDx=0;entryDy=0;endArrow=none;startFill=0;startArrow=none;" edge="1" parent="1" source="ZyxbYxt3RPyEUnQpAJbR-21" target="ZyxbYxt3RPyEUnQpAJbR-83">
          <mxGeometry relative="1" as="geometry" />
        </mxCell>
        <mxCell id="ZyxbYxt3RPyEUnQpAJbR-20" style="rounded=0;orthogonalLoop=1;jettySize=auto;html=1;exitX=1;exitY=0.5;exitDx=0;exitDy=0;entryX=0;entryY=0.5;entryDx=0;entryDy=0;endArrow=none;startFill=0;startArrow=none;" edge="1" parent="1" source="ZyxbYxt3RPyEUnQpAJbR-21" target="ZyxbYxt3RPyEUnQpAJbR-84">
          <mxGeometry relative="1" as="geometry" />
        </mxCell>
        <mxCell id="ZyxbYxt3RPyEUnQpAJbR-21" value="" style="ellipse;whiteSpace=wrap;html=1;aspect=fixed;fillColor=#d5e8d4;strokeColor=#82b366;" vertex="1" parent="1">
          <mxGeometry x="947.5" y="641.8199999999999" width="25" height="25" as="geometry" />
        </mxCell>
        <mxCell id="ZyxbYxt3RPyEUnQpAJbR-22" style="rounded=0;orthogonalLoop=1;jettySize=auto;html=1;exitX=1;exitY=0.5;exitDx=0;exitDy=0;entryX=0;entryY=0.5;entryDx=0;entryDy=0;startArrow=none;startFill=0;endArrow=none;" edge="1" parent="1" source="ZyxbYxt3RPyEUnQpAJbR-26" target="ZyxbYxt3RPyEUnQpAJbR-81">
          <mxGeometry relative="1" as="geometry" />
        </mxCell>
        <mxCell id="ZyxbYxt3RPyEUnQpAJbR-23" style="rounded=0;orthogonalLoop=1;jettySize=auto;html=1;exitX=1;exitY=0.5;exitDx=0;exitDy=0;entryX=0;entryY=0.5;entryDx=0;entryDy=0;startArrow=none;startFill=0;endArrow=none;" edge="1" parent="1" source="ZyxbYxt3RPyEUnQpAJbR-26" target="ZyxbYxt3RPyEUnQpAJbR-82">
          <mxGeometry relative="1" as="geometry" />
        </mxCell>
        <mxCell id="ZyxbYxt3RPyEUnQpAJbR-24" style="rounded=0;orthogonalLoop=1;jettySize=auto;html=1;exitX=1;exitY=0.5;exitDx=0;exitDy=0;entryX=0;entryY=0.5;entryDx=0;entryDy=0;startArrow=none;startFill=0;endArrow=none;" edge="1" parent="1" source="ZyxbYxt3RPyEUnQpAJbR-26" target="ZyxbYxt3RPyEUnQpAJbR-83">
          <mxGeometry relative="1" as="geometry" />
        </mxCell>
        <mxCell id="ZyxbYxt3RPyEUnQpAJbR-25" style="rounded=0;orthogonalLoop=1;jettySize=auto;html=1;exitX=1;exitY=0.5;exitDx=0;exitDy=0;startArrow=none;startFill=0;endArrow=none;" edge="1" parent="1" source="ZyxbYxt3RPyEUnQpAJbR-26">
          <mxGeometry relative="1" as="geometry">
            <mxPoint x="1000" y="740" as="targetPoint" />
          </mxGeometry>
        </mxCell>
        <mxCell id="ZyxbYxt3RPyEUnQpAJbR-26" value="" style="ellipse;whiteSpace=wrap;html=1;aspect=fixed;fillColor=#d5e8d4;strokeColor=#82b366;" vertex="1" parent="1">
          <mxGeometry x="947.5" y="669.3199999999999" width="25" height="25" as="geometry" />
        </mxCell>
        <mxCell id="ZyxbYxt3RPyEUnQpAJbR-27" style="rounded=0;orthogonalLoop=1;jettySize=auto;html=1;exitX=1;exitY=0.5;exitDx=0;exitDy=0;entryX=0;entryY=0.5;entryDx=0;entryDy=0;startArrow=none;startFill=0;endArrow=none;" edge="1" parent="1" source="ZyxbYxt3RPyEUnQpAJbR-31" target="ZyxbYxt3RPyEUnQpAJbR-81">
          <mxGeometry relative="1" as="geometry" />
        </mxCell>
        <mxCell id="ZyxbYxt3RPyEUnQpAJbR-28" style="rounded=0;orthogonalLoop=1;jettySize=auto;html=1;exitX=1;exitY=0.5;exitDx=0;exitDy=0;entryX=0;entryY=0.5;entryDx=0;entryDy=0;startArrow=none;startFill=0;endArrow=none;" edge="1" parent="1" source="ZyxbYxt3RPyEUnQpAJbR-31" target="ZyxbYxt3RPyEUnQpAJbR-82">
          <mxGeometry relative="1" as="geometry" />
        </mxCell>
        <mxCell id="ZyxbYxt3RPyEUnQpAJbR-29" style="rounded=0;orthogonalLoop=1;jettySize=auto;html=1;exitX=1;exitY=0.5;exitDx=0;exitDy=0;entryX=0;entryY=0.5;entryDx=0;entryDy=0;startArrow=none;startFill=0;endArrow=none;" edge="1" parent="1" source="ZyxbYxt3RPyEUnQpAJbR-31" target="ZyxbYxt3RPyEUnQpAJbR-83">
          <mxGeometry relative="1" as="geometry" />
        </mxCell>
        <mxCell id="ZyxbYxt3RPyEUnQpAJbR-30" style="rounded=0;orthogonalLoop=1;jettySize=auto;html=1;exitX=1;exitY=0.5;exitDx=0;exitDy=0;entryX=0;entryY=0.5;entryDx=0;entryDy=0;startArrow=none;startFill=0;endArrow=none;" edge="1" parent="1" source="ZyxbYxt3RPyEUnQpAJbR-31" target="ZyxbYxt3RPyEUnQpAJbR-84">
          <mxGeometry relative="1" as="geometry" />
        </mxCell>
        <mxCell id="ZyxbYxt3RPyEUnQpAJbR-31" value="" style="ellipse;whiteSpace=wrap;html=1;aspect=fixed;fillColor=#d5e8d4;strokeColor=#82b366;" vertex="1" parent="1">
          <mxGeometry x="947.5" y="697.44" width="25" height="25" as="geometry" />
        </mxCell>
        <mxCell id="ZyxbYxt3RPyEUnQpAJbR-32" style="rounded=0;orthogonalLoop=1;jettySize=auto;html=1;exitX=1;exitY=0.5;exitDx=0;exitDy=0;entryX=0;entryY=0.5;entryDx=0;entryDy=0;startArrow=none;startFill=0;endArrow=none;" edge="1" parent="1" source="ZyxbYxt3RPyEUnQpAJbR-36" target="ZyxbYxt3RPyEUnQpAJbR-84">
          <mxGeometry relative="1" as="geometry" />
        </mxCell>
        <mxCell id="ZyxbYxt3RPyEUnQpAJbR-33" style="rounded=0;orthogonalLoop=1;jettySize=auto;html=1;exitX=1;exitY=0.5;exitDx=0;exitDy=0;entryX=0;entryY=0.5;entryDx=0;entryDy=0;startArrow=none;startFill=0;endArrow=none;" edge="1" parent="1" source="ZyxbYxt3RPyEUnQpAJbR-36" target="ZyxbYxt3RPyEUnQpAJbR-83">
          <mxGeometry relative="1" as="geometry" />
        </mxCell>
        <mxCell id="ZyxbYxt3RPyEUnQpAJbR-34" style="rounded=0;orthogonalLoop=1;jettySize=auto;html=1;exitX=1;exitY=0.5;exitDx=0;exitDy=0;entryX=0;entryY=0.5;entryDx=0;entryDy=0;startArrow=none;startFill=0;endArrow=none;" edge="1" parent="1" source="ZyxbYxt3RPyEUnQpAJbR-36" target="ZyxbYxt3RPyEUnQpAJbR-82">
          <mxGeometry relative="1" as="geometry" />
        </mxCell>
        <mxCell id="ZyxbYxt3RPyEUnQpAJbR-35" style="rounded=0;orthogonalLoop=1;jettySize=auto;html=1;exitX=1;exitY=0.5;exitDx=0;exitDy=0;entryX=0;entryY=0.5;entryDx=0;entryDy=0;startArrow=none;startFill=0;endArrow=none;" edge="1" parent="1" source="ZyxbYxt3RPyEUnQpAJbR-36" target="ZyxbYxt3RPyEUnQpAJbR-81">
          <mxGeometry relative="1" as="geometry" />
        </mxCell>
        <mxCell id="ZyxbYxt3RPyEUnQpAJbR-36" value="" style="ellipse;whiteSpace=wrap;html=1;aspect=fixed;fillColor=#d5e8d4;strokeColor=#82b366;" vertex="1" parent="1">
          <mxGeometry x="947.5" y="725.3199999999999" width="25" height="25" as="geometry" />
        </mxCell>
        <mxCell id="ZyxbYxt3RPyEUnQpAJbR-37" value="fc2" style="text;html=1;strokeColor=none;fillColor=none;align=center;verticalAlign=middle;whiteSpace=wrap;rounded=0;fontStyle=1" vertex="1" parent="1">
          <mxGeometry x="1042.5" y="606" width="40" height="30" as="geometry" />
        </mxCell>
        <mxCell id="ZyxbYxt3RPyEUnQpAJbR-38" value="&lt;div&gt;&lt;b&gt;pool1&lt;/b&gt;&lt;/div&gt;" style="text;html=1;strokeColor=none;fillColor=none;align=center;verticalAlign=middle;whiteSpace=wrap;rounded=0;" vertex="1" parent="1">
          <mxGeometry x="521" y="576" width="40" height="30" as="geometry" />
        </mxCell>
        <mxCell id="ZyxbYxt3RPyEUnQpAJbR-39" value="pool2" style="text;html=1;strokeColor=none;fillColor=none;align=center;verticalAlign=middle;whiteSpace=wrap;rounded=0;fontStyle=1" vertex="1" parent="1">
          <mxGeometry x="658" y="623.8199999999999" width="40" height="30" as="geometry" />
        </mxCell>
        <mxCell id="ZyxbYxt3RPyEUnQpAJbR-40" value="&lt;div&gt;112 x 112 x 32&lt;/div&gt;" style="text;html=1;strokeColor=none;fillColor=none;align=center;verticalAlign=middle;whiteSpace=wrap;rounded=0;" vertex="1" parent="1">
          <mxGeometry x="470" y="839.88" width="99" height="30" as="geometry" />
        </mxCell>
        <mxCell id="ZyxbYxt3RPyEUnQpAJbR-41" value="56 x 56 x 64" style="text;html=1;strokeColor=none;fillColor=none;align=center;verticalAlign=middle;whiteSpace=wrap;rounded=0;" vertex="1" parent="1">
          <mxGeometry x="663.5" y="770" width="99" height="30" as="geometry" />
        </mxCell>
        <mxCell id="ZyxbYxt3RPyEUnQpAJbR-42" style="rounded=0;orthogonalLoop=1;jettySize=auto;html=1;exitX=0;exitY=0;exitDx=0;exitDy=0;exitPerimeter=0;entryX=0;entryY=0;entryDx=10;entryDy=0;entryPerimeter=0;dashed=1;dashPattern=8 8;endArrow=none;startFill=0;" edge="1" parent="1" source="ZyxbYxt3RPyEUnQpAJbR-11" target="ZyxbYxt3RPyEUnQpAJbR-1">
          <mxGeometry relative="1" as="geometry" />
        </mxCell>
        <mxCell id="ZyxbYxt3RPyEUnQpAJbR-43" style="rounded=0;orthogonalLoop=1;jettySize=auto;html=1;exitX=0;exitY=0;exitDx=0;exitDy=0;exitPerimeter=0;entryX=0;entryY=0;entryDx=10;entryDy=0;entryPerimeter=0;endArrow=none;startFill=0;dashed=1;dashPattern=8 8;" edge="1" parent="1" source="ZyxbYxt3RPyEUnQpAJbR-2" target="ZyxbYxt3RPyEUnQpAJbR-48">
          <mxGeometry relative="1" as="geometry" />
        </mxCell>
        <mxCell id="ZyxbYxt3RPyEUnQpAJbR-44" style="rounded=0;orthogonalLoop=1;jettySize=auto;html=1;exitX=1;exitY=1;exitDx=0;exitDy=0;exitPerimeter=0;entryX=1;entryY=1;entryDx=0;entryDy=0;entryPerimeter=0;dashed=1;dashPattern=8 8;endArrow=none;startFill=0;" edge="1" parent="1" source="ZyxbYxt3RPyEUnQpAJbR-11" target="ZyxbYxt3RPyEUnQpAJbR-1">
          <mxGeometry relative="1" as="geometry" />
        </mxCell>
        <mxCell id="ZyxbYxt3RPyEUnQpAJbR-45" style="rounded=0;orthogonalLoop=1;jettySize=auto;html=1;exitX=0;exitY=0;exitDx=110;exitDy=420;exitPerimeter=0;entryX=1;entryY=1;entryDx=0;entryDy=0;entryPerimeter=0;endArrow=none;startFill=0;dashed=1;dashPattern=8 8;" edge="1" parent="1" source="ZyxbYxt3RPyEUnQpAJbR-2" target="ZyxbYxt3RPyEUnQpAJbR-48">
          <mxGeometry relative="1" as="geometry" />
        </mxCell>
        <mxCell id="ZyxbYxt3RPyEUnQpAJbR-46" style="rounded=0;orthogonalLoop=1;jettySize=auto;html=1;exitX=0;exitY=0;exitDx=120;exitDy=110;exitPerimeter=0;entryX=0;entryY=0;entryDx=80;entryDy=70;entryPerimeter=0;endArrow=none;startFill=0;dashed=1;dashPattern=8 8;" edge="1" parent="1" source="ZyxbYxt3RPyEUnQpAJbR-2" target="ZyxbYxt3RPyEUnQpAJbR-48">
          <mxGeometry relative="1" as="geometry" />
        </mxCell>
        <mxCell id="ZyxbYxt3RPyEUnQpAJbR-47" style="rounded=0;orthogonalLoop=1;jettySize=auto;html=1;exitX=0;exitY=0;exitDx=0;exitDy=310;exitPerimeter=0;entryX=0;entryY=0;entryDx=0;entryDy=170;entryPerimeter=0;endArrow=none;startFill=0;dashed=1;dashPattern=8 8;" edge="1" parent="1" source="ZyxbYxt3RPyEUnQpAJbR-2" target="ZyxbYxt3RPyEUnQpAJbR-48">
          <mxGeometry relative="1" as="geometry" />
        </mxCell>
        <mxCell id="ZyxbYxt3RPyEUnQpAJbR-48" value="" style="shape=cube;whiteSpace=wrap;html=1;boundedLbl=1;backgroundOutline=1;darkOpacity=0.05;darkOpacity2=0.1;size=70;direction=east;flipH=1;fillColor=#f8cecc;strokeColor=#b85450;" vertex="1" parent="1">
          <mxGeometry x="521" y="576" width="80" height="240" as="geometry" />
        </mxCell>
        <mxCell id="ZyxbYxt3RPyEUnQpAJbR-49" value="" style="shape=cube;whiteSpace=wrap;html=1;boundedLbl=1;backgroundOutline=1;darkOpacity=0.05;darkOpacity2=0.1;size=70;direction=east;flipH=1;fillColor=#ffe6cc;strokeColor=#d79b00;" vertex="1" parent="1">
          <mxGeometry x="531" y="576" width="89" height="240" as="geometry" />
        </mxCell>
        <mxCell id="ZyxbYxt3RPyEUnQpAJbR-50" value="" style="shape=cube;whiteSpace=wrap;html=1;boundedLbl=1;backgroundOutline=1;darkOpacity=0.05;darkOpacity2=0.1;size=70;direction=east;flipH=1;fillColor=#fff2cc;strokeColor=#d6b656;" vertex="1" parent="1">
          <mxGeometry x="550" y="576" width="89" height="240" as="geometry" />
        </mxCell>
        <mxCell id="ZyxbYxt3RPyEUnQpAJbR-51" style="rounded=0;orthogonalLoop=1;jettySize=auto;html=1;exitX=0;exitY=0;exitDx=70;exitDy=240;exitPerimeter=0;entryX=1;entryY=1;entryDx=0;entryDy=0;entryPerimeter=0;dashed=1;dashPattern=8 8;endArrow=none;startFill=0;" edge="1" parent="1" source="ZyxbYxt3RPyEUnQpAJbR-50" target="ZyxbYxt3RPyEUnQpAJbR-58">
          <mxGeometry relative="1" as="geometry" />
        </mxCell>
        <mxCell id="ZyxbYxt3RPyEUnQpAJbR-52" style="rounded=0;orthogonalLoop=1;jettySize=auto;html=1;exitX=0;exitY=0;exitDx=89;exitDy=70;exitPerimeter=0;entryX=0;entryY=0;entryDx=70;entryDy=50;entryPerimeter=0;dashed=1;dashPattern=8 8;endArrow=none;startFill=0;" edge="1" parent="1" source="ZyxbYxt3RPyEUnQpAJbR-50" target="ZyxbYxt3RPyEUnQpAJbR-58">
          <mxGeometry relative="1" as="geometry" />
        </mxCell>
        <mxCell id="ZyxbYxt3RPyEUnQpAJbR-53" style="rounded=0;orthogonalLoop=1;jettySize=auto;html=1;exitX=0;exitY=0;exitDx=0;exitDy=0;exitPerimeter=0;entryX=0;entryY=0;entryDx=20;entryDy=0;entryPerimeter=0;dashed=1;dashPattern=8 8;endArrow=none;startFill=0;" edge="1" parent="1" source="ZyxbYxt3RPyEUnQpAJbR-50" target="ZyxbYxt3RPyEUnQpAJbR-58">
          <mxGeometry relative="1" as="geometry" />
        </mxCell>
        <mxCell id="ZyxbYxt3RPyEUnQpAJbR-54" style="rounded=0;orthogonalLoop=1;jettySize=auto;html=1;exitX=0;exitY=0;exitDx=0;exitDy=170;exitPerimeter=0;entryX=0;entryY=0;entryDx=0;entryDy=86;entryPerimeter=0;dashed=1;dashPattern=8 8;endArrow=none;startFill=0;" edge="1" parent="1" source="ZyxbYxt3RPyEUnQpAJbR-50" target="ZyxbYxt3RPyEUnQpAJbR-58">
          <mxGeometry relative="1" as="geometry" />
        </mxCell>
        <mxCell id="ZyxbYxt3RPyEUnQpAJbR-55" style="rounded=0;orthogonalLoop=1;jettySize=auto;html=1;exitX=0;exitY=0;exitDx=0;exitDy=0;exitPerimeter=0;entryX=0;entryY=0;entryDx=0;entryDy=0;dashed=1;dashPattern=8 8;endArrow=none;startFill=0;" edge="1" parent="1" source="ZyxbYxt3RPyEUnQpAJbR-58" target="ZyxbYxt3RPyEUnQpAJbR-101">
          <mxGeometry relative="1" as="geometry" />
        </mxCell>
        <mxCell id="ZyxbYxt3RPyEUnQpAJbR-56" style="rounded=0;orthogonalLoop=1;jettySize=auto;html=1;exitX=0;exitY=0;exitDx=50;exitDy=136;exitPerimeter=0;entryX=0;entryY=1;entryDx=0;entryDy=0;dashed=1;dashPattern=8 8;endArrow=none;startFill=0;" edge="1" parent="1" source="ZyxbYxt3RPyEUnQpAJbR-58" target="ZyxbYxt3RPyEUnQpAJbR-101">
          <mxGeometry relative="1" as="geometry" />
        </mxCell>
        <mxCell id="ZyxbYxt3RPyEUnQpAJbR-57" style="rounded=0;orthogonalLoop=1;jettySize=auto;html=1;exitX=0;exitY=0;exitDx=0;exitDy=86;exitPerimeter=0;entryX=0;entryY=0.75;entryDx=0;entryDy=0;endArrow=none;startFill=0;dashed=1;dashPattern=8 8;" edge="1" parent="1" source="ZyxbYxt3RPyEUnQpAJbR-58" target="ZyxbYxt3RPyEUnQpAJbR-101">
          <mxGeometry relative="1" as="geometry" />
        </mxCell>
        <mxCell id="ZyxbYxt3RPyEUnQpAJbR-58" value="" style="shape=cube;whiteSpace=wrap;html=1;boundedLbl=1;backgroundOutline=1;darkOpacity=0.05;darkOpacity2=0.1;size=50;direction=east;flipH=1;fillColor=#f8cecc;strokeColor=#b85450;" vertex="1" parent="1">
          <mxGeometry x="670" y="628" width="70" height="136" as="geometry" />
        </mxCell>
        <mxCell id="ZyxbYxt3RPyEUnQpAJbR-59" style="rounded=0;orthogonalLoop=1;jettySize=auto;html=1;exitX=1;exitY=0.5;exitDx=0;exitDy=0;entryX=0;entryY=0.5;entryDx=0;entryDy=0;endArrow=none;startFill=0;startArrow=none;" edge="1" parent="1">
          <mxGeometry relative="1" as="geometry">
            <mxPoint x="1025" y="653.8199999999999" as="sourcePoint" />
            <mxPoint x="1052" y="653.8199999999999" as="targetPoint" />
          </mxGeometry>
        </mxCell>
        <mxCell id="ZyxbYxt3RPyEUnQpAJbR-60" style="rounded=0;orthogonalLoop=1;jettySize=auto;html=1;exitX=1;exitY=0.5;exitDx=0;exitDy=0;entryX=0;entryY=0.5;entryDx=0;entryDy=0;endArrow=none;startFill=0;startArrow=none;" edge="1" parent="1">
          <mxGeometry relative="1" as="geometry">
            <mxPoint x="1025" y="653.8199999999999" as="sourcePoint" />
            <mxPoint x="1052" y="681.8199999999999" as="targetPoint" />
          </mxGeometry>
        </mxCell>
        <mxCell id="ZyxbYxt3RPyEUnQpAJbR-61" style="rounded=0;orthogonalLoop=1;jettySize=auto;html=1;exitX=1;exitY=0.5;exitDx=0;exitDy=0;entryX=0;entryY=0.5;entryDx=0;entryDy=0;endArrow=none;startFill=0;startArrow=none;" edge="1" parent="1">
          <mxGeometry relative="1" as="geometry">
            <mxPoint x="1025" y="653.8199999999999" as="sourcePoint" />
            <mxPoint x="1052" y="709.8199999999999" as="targetPoint" />
          </mxGeometry>
        </mxCell>
        <mxCell id="ZyxbYxt3RPyEUnQpAJbR-62" style="rounded=0;orthogonalLoop=1;jettySize=auto;html=1;exitX=1;exitY=0.5;exitDx=0;exitDy=0;entryX=0;entryY=0.5;entryDx=0;entryDy=0;endArrow=none;startFill=0;startArrow=none;" edge="1" parent="1">
          <mxGeometry relative="1" as="geometry">
            <mxPoint x="1025" y="653.8199999999999" as="sourcePoint" />
            <mxPoint x="1052" y="737.8199999999999" as="targetPoint" />
          </mxGeometry>
        </mxCell>
        <mxCell id="ZyxbYxt3RPyEUnQpAJbR-63" style="rounded=0;orthogonalLoop=1;jettySize=auto;html=1;exitX=1;exitY=0.5;exitDx=0;exitDy=0;entryX=0;entryY=0.5;entryDx=0;entryDy=0;startArrow=none;startFill=0;endArrow=none;" edge="1" parent="1">
          <mxGeometry relative="1" as="geometry">
            <mxPoint x="1025" y="681.8199999999999" as="sourcePoint" />
            <mxPoint x="1052" y="653.8199999999999" as="targetPoint" />
          </mxGeometry>
        </mxCell>
        <mxCell id="ZyxbYxt3RPyEUnQpAJbR-64" style="rounded=0;orthogonalLoop=1;jettySize=auto;html=1;exitX=1;exitY=0.5;exitDx=0;exitDy=0;entryX=0;entryY=0.5;entryDx=0;entryDy=0;startArrow=none;startFill=0;endArrow=none;" edge="1" parent="1">
          <mxGeometry relative="1" as="geometry">
            <mxPoint x="1025" y="681.8199999999999" as="sourcePoint" />
            <mxPoint x="1052" y="681.8199999999999" as="targetPoint" />
          </mxGeometry>
        </mxCell>
        <mxCell id="ZyxbYxt3RPyEUnQpAJbR-65" style="rounded=0;orthogonalLoop=1;jettySize=auto;html=1;exitX=1;exitY=0.5;exitDx=0;exitDy=0;entryX=0;entryY=0.5;entryDx=0;entryDy=0;startArrow=none;startFill=0;endArrow=none;" edge="1" parent="1">
          <mxGeometry relative="1" as="geometry">
            <mxPoint x="1025" y="681.8199999999999" as="sourcePoint" />
            <mxPoint x="1052" y="709.8199999999999" as="targetPoint" />
          </mxGeometry>
        </mxCell>
        <mxCell id="ZyxbYxt3RPyEUnQpAJbR-66" style="rounded=0;orthogonalLoop=1;jettySize=auto;html=1;exitX=1;exitY=0.5;exitDx=0;exitDy=0;startArrow=none;startFill=0;endArrow=none;" edge="1" parent="1">
          <mxGeometry relative="1" as="geometry">
            <mxPoint x="1052" y="739.8199999999999" as="targetPoint" />
            <mxPoint x="1025" y="681.8199999999999" as="sourcePoint" />
          </mxGeometry>
        </mxCell>
        <mxCell id="ZyxbYxt3RPyEUnQpAJbR-67" style="rounded=0;orthogonalLoop=1;jettySize=auto;html=1;exitX=1;exitY=0.5;exitDx=0;exitDy=0;entryX=0;entryY=0.5;entryDx=0;entryDy=0;startArrow=none;startFill=0;endArrow=none;" edge="1" parent="1">
          <mxGeometry relative="1" as="geometry">
            <mxPoint x="1025" y="709.8199999999999" as="sourcePoint" />
            <mxPoint x="1052" y="653.8199999999999" as="targetPoint" />
          </mxGeometry>
        </mxCell>
        <mxCell id="ZyxbYxt3RPyEUnQpAJbR-68" style="rounded=0;orthogonalLoop=1;jettySize=auto;html=1;exitX=1;exitY=0.5;exitDx=0;exitDy=0;entryX=0;entryY=0.5;entryDx=0;entryDy=0;startArrow=none;startFill=0;endArrow=none;" edge="1" parent="1">
          <mxGeometry relative="1" as="geometry">
            <mxPoint x="1025" y="709.8199999999999" as="sourcePoint" />
            <mxPoint x="1052" y="681.8199999999999" as="targetPoint" />
          </mxGeometry>
        </mxCell>
        <mxCell id="ZyxbYxt3RPyEUnQpAJbR-69" style="rounded=0;orthogonalLoop=1;jettySize=auto;html=1;exitX=1;exitY=0.5;exitDx=0;exitDy=0;entryX=0;entryY=0.5;entryDx=0;entryDy=0;startArrow=none;startFill=0;endArrow=none;" edge="1" parent="1">
          <mxGeometry relative="1" as="geometry">
            <mxPoint x="1025" y="709.8199999999999" as="sourcePoint" />
            <mxPoint x="1052" y="709.8199999999999" as="targetPoint" />
          </mxGeometry>
        </mxCell>
        <mxCell id="ZyxbYxt3RPyEUnQpAJbR-70" style="rounded=0;orthogonalLoop=1;jettySize=auto;html=1;exitX=1;exitY=0.5;exitDx=0;exitDy=0;entryX=0;entryY=0.5;entryDx=0;entryDy=0;startArrow=none;startFill=0;endArrow=none;" edge="1" parent="1">
          <mxGeometry relative="1" as="geometry">
            <mxPoint x="1025" y="709.8199999999999" as="sourcePoint" />
            <mxPoint x="1052" y="737.8199999999999" as="targetPoint" />
          </mxGeometry>
        </mxCell>
        <mxCell id="ZyxbYxt3RPyEUnQpAJbR-71" style="rounded=0;orthogonalLoop=1;jettySize=auto;html=1;exitX=1;exitY=0.5;exitDx=0;exitDy=0;entryX=0;entryY=0.5;entryDx=0;entryDy=0;startArrow=none;startFill=0;endArrow=none;" edge="1" parent="1">
          <mxGeometry relative="1" as="geometry">
            <mxPoint x="1025" y="737.8199999999999" as="sourcePoint" />
            <mxPoint x="1052" y="737.8199999999999" as="targetPoint" />
          </mxGeometry>
        </mxCell>
        <mxCell id="ZyxbYxt3RPyEUnQpAJbR-72" style="rounded=0;orthogonalLoop=1;jettySize=auto;html=1;exitX=1;exitY=0.5;exitDx=0;exitDy=0;entryX=0;entryY=0.5;entryDx=0;entryDy=0;startArrow=none;startFill=0;endArrow=none;" edge="1" parent="1">
          <mxGeometry relative="1" as="geometry">
            <mxPoint x="1025" y="737.8199999999999" as="sourcePoint" />
            <mxPoint x="1052" y="709.8199999999999" as="targetPoint" />
          </mxGeometry>
        </mxCell>
        <mxCell id="ZyxbYxt3RPyEUnQpAJbR-73" style="rounded=0;orthogonalLoop=1;jettySize=auto;html=1;exitX=1;exitY=0.5;exitDx=0;exitDy=0;entryX=0;entryY=0.5;entryDx=0;entryDy=0;startArrow=none;startFill=0;endArrow=none;" edge="1" parent="1">
          <mxGeometry relative="1" as="geometry">
            <mxPoint x="1025" y="737.8199999999999" as="sourcePoint" />
            <mxPoint x="1052" y="681.8199999999999" as="targetPoint" />
          </mxGeometry>
        </mxCell>
        <mxCell id="ZyxbYxt3RPyEUnQpAJbR-74" style="rounded=0;orthogonalLoop=1;jettySize=auto;html=1;exitX=1;exitY=0.5;exitDx=0;exitDy=0;entryX=0;entryY=0.5;entryDx=0;entryDy=0;startArrow=none;startFill=0;endArrow=none;" edge="1" parent="1">
          <mxGeometry relative="1" as="geometry">
            <mxPoint x="1025" y="737.8199999999999" as="sourcePoint" />
            <mxPoint x="1052" y="653.8199999999999" as="targetPoint" />
          </mxGeometry>
        </mxCell>
        <mxCell id="ZyxbYxt3RPyEUnQpAJbR-75" value="" style="ellipse;whiteSpace=wrap;html=1;aspect=fixed;fillColor=#d5e8d4;strokeColor=#82b366;" vertex="1" parent="1">
          <mxGeometry x="1050" y="641.8199999999999" width="25" height="25" as="geometry" />
        </mxCell>
        <mxCell id="ZyxbYxt3RPyEUnQpAJbR-76" value="" style="ellipse;whiteSpace=wrap;html=1;aspect=fixed;fillColor=#d5e8d4;strokeColor=#82b366;" vertex="1" parent="1">
          <mxGeometry x="1050" y="669.3199999999999" width="25" height="25" as="geometry" />
        </mxCell>
        <mxCell id="ZyxbYxt3RPyEUnQpAJbR-77" value="" style="ellipse;whiteSpace=wrap;html=1;aspect=fixed;fillColor=#d5e8d4;strokeColor=#82b366;" vertex="1" parent="1">
          <mxGeometry x="1050" y="697.44" width="25" height="25" as="geometry" />
        </mxCell>
        <mxCell id="ZyxbYxt3RPyEUnQpAJbR-78" value="" style="ellipse;whiteSpace=wrap;html=1;aspect=fixed;fillColor=#d5e8d4;strokeColor=#82b366;" vertex="1" parent="1">
          <mxGeometry x="1050" y="725.3199999999999" width="25" height="25" as="geometry" />
        </mxCell>
        <mxCell id="ZyxbYxt3RPyEUnQpAJbR-79" value="&lt;div&gt;logits&lt;/div&gt;" style="text;html=1;strokeColor=none;fillColor=none;align=center;verticalAlign=middle;whiteSpace=wrap;rounded=0;fontStyle=1" vertex="1" parent="1">
          <mxGeometry x="1105" y="666.8199999999999" width="40" height="25.68" as="geometry" />
        </mxCell>
        <mxCell id="ZyxbYxt3RPyEUnQpAJbR-80" value="1 x 1 x n" style="text;html=1;strokeColor=none;fillColor=none;align=center;verticalAlign=middle;whiteSpace=wrap;rounded=0;" vertex="1" parent="1">
          <mxGeometry x="1075.5" y="702.3199999999999" width="99" height="24" as="geometry" />
        </mxCell>
        <mxCell id="ZyxbYxt3RPyEUnQpAJbR-81" value="" style="ellipse;whiteSpace=wrap;html=1;aspect=fixed;fillColor=#fff2cc;strokeColor=#d6b656;" vertex="1" parent="1">
          <mxGeometry x="1000" y="641.8199999999999" width="25" height="25" as="geometry" />
        </mxCell>
        <mxCell id="ZyxbYxt3RPyEUnQpAJbR-82" value="" style="ellipse;whiteSpace=wrap;html=1;aspect=fixed;fillColor=#fff2cc;strokeColor=#d6b656;" vertex="1" parent="1">
          <mxGeometry x="1000" y="669.3199999999999" width="25" height="25" as="geometry" />
        </mxCell>
        <mxCell id="ZyxbYxt3RPyEUnQpAJbR-83" value="" style="ellipse;whiteSpace=wrap;html=1;aspect=fixed;fillColor=#fff2cc;strokeColor=#d6b656;" vertex="1" parent="1">
          <mxGeometry x="1000" y="697.44" width="25" height="25" as="geometry" />
        </mxCell>
        <mxCell id="ZyxbYxt3RPyEUnQpAJbR-84" value="" style="ellipse;whiteSpace=wrap;html=1;aspect=fixed;fillColor=#fff2cc;strokeColor=#d6b656;" vertex="1" parent="1">
          <mxGeometry x="1000" y="725.3199999999999" width="25" height="25" as="geometry" />
        </mxCell>
        <mxCell id="ZyxbYxt3RPyEUnQpAJbR-85" style="rounded=0;orthogonalLoop=1;jettySize=auto;html=1;entryX=0;entryY=0;entryDx=38;entryDy=5.5;entryPerimeter=0;endArrow=none;startFill=0;" edge="1" parent="1" source="ZyxbYxt3RPyEUnQpAJbR-75" target="ZyxbYxt3RPyEUnQpAJbR-89">
          <mxGeometry relative="1" as="geometry" />
        </mxCell>
        <mxCell id="ZyxbYxt3RPyEUnQpAJbR-86" style="rounded=0;orthogonalLoop=1;jettySize=auto;html=1;entryX=0;entryY=0;entryDx=38;entryDy=5.5;entryPerimeter=0;endArrow=none;startFill=0;" edge="1" parent="1" source="ZyxbYxt3RPyEUnQpAJbR-76" target="ZyxbYxt3RPyEUnQpAJbR-89">
          <mxGeometry relative="1" as="geometry" />
        </mxCell>
        <mxCell id="ZyxbYxt3RPyEUnQpAJbR-87" style="rounded=0;orthogonalLoop=1;jettySize=auto;html=1;exitX=1;exitY=0.5;exitDx=0;exitDy=0;entryX=0;entryY=0;entryDx=38;entryDy=5.5;entryPerimeter=0;endArrow=none;startFill=0;" edge="1" parent="1" source="ZyxbYxt3RPyEUnQpAJbR-77" target="ZyxbYxt3RPyEUnQpAJbR-89">
          <mxGeometry relative="1" as="geometry" />
        </mxCell>
        <mxCell id="ZyxbYxt3RPyEUnQpAJbR-88" style="rounded=0;orthogonalLoop=1;jettySize=auto;html=1;exitX=1;exitY=0.5;exitDx=0;exitDy=0;entryX=0;entryY=0;entryDx=38;entryDy=5.5;entryPerimeter=0;endArrow=none;startFill=0;" edge="1" parent="1" source="ZyxbYxt3RPyEUnQpAJbR-78" target="ZyxbYxt3RPyEUnQpAJbR-89">
          <mxGeometry relative="1" as="geometry" />
        </mxCell>
        <mxCell id="ZyxbYxt3RPyEUnQpAJbR-89" value="" style="shape=cube;whiteSpace=wrap;html=1;boundedLbl=1;backgroundOutline=1;darkOpacity=0.05;darkOpacity2=0.1;size=3;direction=east;flipH=1;fillColor=#dae8fc;strokeColor=#6c8ebf;" vertex="1" parent="1">
          <mxGeometry x="1102.5" y="694.3199999999999" width="38" height="8" as="geometry" />
        </mxCell>
        <mxCell id="ZyxbYxt3RPyEUnQpAJbR-90" style="edgeStyle=orthogonalEdgeStyle;rounded=0;orthogonalLoop=1;jettySize=auto;html=1;exitX=0;exitY=0;exitDx=0;exitDy=5;exitPerimeter=0;" edge="1" parent="1">
          <mxGeometry relative="1" as="geometry">
            <mxPoint x="1139.4999999999998" y="698.46" as="sourcePoint" />
            <mxPoint x="1170" y="699" as="targetPoint" />
          </mxGeometry>
        </mxCell>
        <mxCell id="ZyxbYxt3RPyEUnQpAJbR-91" value="1 x 1 x 200704" style="text;html=1;strokeColor=none;fillColor=none;align=center;verticalAlign=middle;whiteSpace=wrap;rounded=0;" vertex="1" parent="1">
          <mxGeometry x="807.5" y="706.01" width="99" height="30" as="geometry" />
        </mxCell>
        <mxCell id="ZyxbYxt3RPyEUnQpAJbR-92" value="" style="shape=cube;whiteSpace=wrap;html=1;boundedLbl=1;backgroundOutline=1;darkOpacity=0.05;darkOpacity2=0.1;size=7;direction=east;flipH=1;fillColor=#f8cecc;strokeColor=#b85450;" vertex="1" parent="1">
          <mxGeometry x="808.5" y="819.64" width="36" height="7.88" as="geometry" />
        </mxCell>
        <mxCell id="ZyxbYxt3RPyEUnQpAJbR-93" value="" style="shape=cube;whiteSpace=wrap;html=1;boundedLbl=1;backgroundOutline=1;darkOpacity=0.05;darkOpacity2=0.1;size=7;direction=east;flipH=1;fillColor=#e1d5e7;strokeColor=#9673a6;" vertex="1" parent="1">
          <mxGeometry x="807.5" y="840.4599999999999" width="36" height="7.88" as="geometry" />
        </mxCell>
        <mxCell id="ZyxbYxt3RPyEUnQpAJbR-94" value="" style="shape=cube;whiteSpace=wrap;html=1;boundedLbl=1;backgroundOutline=1;darkOpacity=0.05;darkOpacity2=0.1;size=7;direction=east;flipH=1;fillColor=#d5e8d4;strokeColor=#82b366;" vertex="1" parent="1">
          <mxGeometry x="807.5" y="861.28" width="36" height="7.88" as="geometry" />
        </mxCell>
        <mxCell id="ZyxbYxt3RPyEUnQpAJbR-95" value="ReLU Activation" style="text;html=1;strokeColor=none;fillColor=none;align=left;verticalAlign=middle;whiteSpace=wrap;rounded=0;fontStyle=1" vertex="1" parent="1">
          <mxGeometry x="846" y="790.8199999999999" width="138" height="23.88" as="geometry" />
        </mxCell>
        <mxCell id="ZyxbYxt3RPyEUnQpAJbR-96" value="Pooling &lt;span style=&quot;font-weight: normal;&quot;&gt;&lt;i&gt;(Dimension Reduction)&lt;/i&gt;&lt;/span&gt;" style="text;html=1;strokeColor=none;fillColor=none;align=left;verticalAlign=middle;whiteSpace=wrap;rounded=0;fontStyle=1" vertex="1" parent="1">
          <mxGeometry x="846" y="811.64" width="179" height="23.88" as="geometry" />
        </mxCell>
        <mxCell id="ZyxbYxt3RPyEUnQpAJbR-97" value="Flatten &lt;span style=&quot;font-weight: normal;&quot;&gt;&lt;i&gt;(to 1D)&lt;/i&gt;&lt;/span&gt;" style="text;html=1;strokeColor=none;fillColor=none;align=left;verticalAlign=middle;whiteSpace=wrap;rounded=0;fontStyle=1" vertex="1" parent="1">
          <mxGeometry x="846" y="832.46" width="138" height="23.88" as="geometry" />
        </mxCell>
        <mxCell id="ZyxbYxt3RPyEUnQpAJbR-98" value="Fully Connected &lt;span style=&quot;font-weight: normal;&quot;&gt;&lt;i&gt;(Dense)&lt;/i&gt;&lt;/span&gt;" style="text;html=1;strokeColor=none;fillColor=none;align=left;verticalAlign=middle;whiteSpace=wrap;rounded=0;fontStyle=1" vertex="1" parent="1">
          <mxGeometry x="846" y="853.28" width="146.5" height="23.88" as="geometry" />
        </mxCell>
        <mxCell id="ZyxbYxt3RPyEUnQpAJbR-100" style="rounded=0;orthogonalLoop=1;jettySize=auto;html=1;exitX=0;exitY=0;exitDx=70;exitDy=50;exitPerimeter=0;entryX=0;entryY=0;entryDx=0;entryDy=0;endArrow=none;startFill=0;dashed=1;dashPattern=8 8;" edge="1" parent="1" source="ZyxbYxt3RPyEUnQpAJbR-58" target="ZyxbYxt3RPyEUnQpAJbR-101">
          <mxGeometry relative="1" as="geometry" />
        </mxCell>
        <mxCell id="ZyxbYxt3RPyEUnQpAJbR-101" value="" style="rounded=0;whiteSpace=wrap;html=1;fillColor=#e1d5e7;strokeColor=#9673a6;" vertex="1" parent="1">
          <mxGeometry x="797" y="690.63" width="120" height="15.38" as="geometry" />
        </mxCell>
        <mxCell id="ZyxbYxt3RPyEUnQpAJbR-102" value="" style="rounded=0;whiteSpace=wrap;html=1;fillColor=#dae8fc;strokeColor=#6c8ebf;" vertex="1" parent="1">
          <mxGeometry x="1100" y="690.63" width="50" height="15.38" as="geometry" />
        </mxCell>
      </root>
    </mxGraphModel>
  </diagram>
</mxfile>
